Coordinates
version=1
nRows=16
nColumns=42
inDegrees=yes

Units are S.I. units (second, meters, Newtons, ...)
If the header above contains a line with 'inDegrees', this indicates whether rotational values are in degrees (yes) or radians (no).

endheader
time	pelvis_tilt	pelvis_list	pelvis_rotation	pelvis_tx	pelvis_ty	pelvis_tz	hip_flexion_r	hip_adduction_r	hip_rotation_r	knee_angle_r	knee_adduction_r	knee_angle_r_beta	ankle_angle_r	subtalar_angle_r	mtp_angle_r	hip_flexion_l	hip_adduction_l	hip_rotation_l	knee_angle_l	knee_adduction_l	knee_angle_l_beta	ankle_angle_l	subtalar_angle_l	mtp_angle_l	lumbar_extension	lumbar_bending	lumbar_rotation	arm_flex_r	arm_add_r	arm_rot_r	elbow_flex_r	pro_sup_r	wrist_flex_r	wrist_dev_r	arm_flex_l	arm_add_l	arm_rot_l	elbow_flex_l	pro_sup_l	wrist_flex_l	wrist_dev_l
      1.75000000	     14.68000449	      4.54088107	      2.62496016	      0.21785012	      0.94273851	     -0.24033677	    -14.63872104	      5.01655684	    -23.41535636	     10.61632142	     -5.97008653	      0.18528976	     20.75680096	     18.68112686	     -7.54007781	      8.51342010	      4.08309566	    -11.85373201	     47.06159315	     -5.88115594	      0.82137975	     17.43765574	      2.12987316	     -7.54007781	    -44.77860886	     -2.70751977	     -0.30242438	      6.55170969	    -10.92405798	      6.44205908	     40.30293203	     90.00000001	      0.00000000	      0.00000000	     -4.06094845	    -10.55429315	     12.26477633	     48.51080750	     90.00000001	      0.00000000	      0.00000000
      1.76000000	     14.67809601	      4.52477065	      2.71640110	      0.22332480	      0.94264220	     -0.24028275	    -15.49774172	      5.12098109	    -23.63241888	      9.71642746	     -5.70892450	      0.16958365	     20.62194259	     19.34029988	     -7.53895463	      9.06664927	      4.36105729	    -12.04540793	     45.08290171	     -5.98811324	      0.78684507	     17.18179161	      3.18986937	     -7.53895463	    -44.85019005	     -2.71223475	     -0.28849075	      6.58272730	    -10.98945572	      6.53872934	     40.44744696	     90.00000001	      0.00000000	      0.00000000	     -4.10660462	    -10.45758027	     12.11005140	     48.53027686	     90.00000001	      0.00000000	      0.00000000
      1.77000000	     14.64618284	      4.50050092	      2.84843836	      0.22879075	      0.94242079	     -0.24036624	    -16.34927802	      5.23920474	    -23.78805585	      8.78652593	     -5.40877547	      0.15335381	     20.47986994	     19.94160909	     -7.53798363	      9.60826701	      4.65548274	    -12.23921720	     43.01268247	     -6.11428486	      0.75071293	     16.80578764	      4.21486243	     -7.53798363	    -44.88760689	     -2.68314572	     -0.28950506	      6.61444127	    -11.05345351	      6.63882662	     40.55613037	     90.00000001	      0.00000000	      0.00000000	     -4.14731928	    -10.37033692	     11.98693549	     48.49431726	     90.00000001	      0.00000000	      0.00000000
      1.78000000	     14.62349150	      4.46784182	      2.98070685	      0.23425607	      0.94213577	     -0.24048776	    -17.21493657	      5.37162959	    -23.91258804	      7.85883113	     -5.11359670	      0.13716248	     20.30144081	     20.49331709	     -7.53710384	     10.07417951	      4.96266039	    -12.55371245	     40.81507963	     -6.32098520	      0.71235752	     16.39132965	      5.30323452	     -7.53710384	    -44.94015585	     -2.64096136	     -0.31051187	      6.64402950	    -11.12151680	      6.74243566	     40.67769686	     90.00000001	      0.00000000	      0.00000000	     -4.21857971	    -10.29984424	     11.88253619	     48.48714043	     90.00000001	      0.00000000	      0.00000000
      1.79000000	     14.64247658	      4.44198637	      3.12084591	      0.23982454	      0.94180866	     -0.24064176	    -18.14003828	      5.50684739	    -24.00248819	      6.93964834	     -4.82839267	      0.12111971	     20.09868804	     20.90878862	     -7.53591822	     10.43972576	      5.25889542	    -13.18827560	     38.50553389	     -6.66911910	      0.67204835	     16.06082044	      6.70994789	     -7.53591822	    -45.02934046	     -2.61216149	     -0.33170781	      6.64574238	    -11.16853105	      6.87858651	     40.83066274	     90.00000001	      0.00000000	      0.00000000	     -4.30092345	    -10.24744098	     11.79259433	     48.55348625	     90.00000001	      0.00000000	      0.00000000
      1.80000000	     14.41870572	      4.29973203	      3.43065950	      0.24506693	      0.94086051	     -0.24107471	    -18.68046649	      5.88142544	    -24.14433819	      6.12304811	     -4.77301116	      0.10686735	     20.12435426	     21.27353357	     -7.53547143	     11.17681395	      5.50276465	    -13.40569858	     36.38706375	     -6.92101097	      0.63507407	     15.63699426	      7.51995625	     -7.53547143	    -44.87806855	     -2.37975061	     -0.41333939	      6.69907769	    -11.20034867	      6.96611805	     40.87972771	     90.00000001	      0.00000000	      0.00000000	     -4.32024768	    -10.19599119	     11.77281736	     48.41259599	     90.00000001	      0.00000000	      0.00000000
      1.81000000	     14.54089868	      4.35095706	      3.51672863	      0.25078663	      0.94062738	     -0.24137037	    -19.83165926	      5.82309469	    -24.17060334	      5.09951153	     -4.21289723	      0.08900327	     19.84568059	     21.80233061	     -7.53489564	     11.20387795	      5.88145339	    -14.22589153	     33.76603451	     -7.20908047	      0.58932848	     15.20317326	      9.16646499	     -7.53489564	    -45.07473466	     -2.43445075	     -0.45307642	      6.70182195	    -11.25491438	      7.09212620	     40.96916166	     90.00000001	      0.00000000	      0.00000000	     -4.39922336	    -10.13753384	     11.69960365	     48.48530669	     90.00000001	      0.00000000	      0.00000000
      1.82000000	     14.45857302	      4.27238323	      3.75519563	      0.25629116	      0.93976098	     -0.24187202	    -20.58482708	      6.04399525	    -24.27333756	      4.29221132	     -3.98728105	      0.07491322	     19.82137478	     22.06296023	     -7.53431880	     11.60286128	      6.15810000	    -15.05835246	     31.40372830	     -7.60072474	      0.54809846	     14.94567053	     10.79845475	     -7.53431880	    -45.05850517	     -2.29321932	     -0.53654562	      6.71699176	    -11.28647975	      7.21917456	     41.04788916	     90.00000001	      0.00000000	      0.00000000	     -4.47078527	    -10.10696372	     11.69220702	     48.47442553	     90.00000001	      0.00000000	      0.00000000
      1.83000000	     14.46419338	      4.16922262	      3.95009252	      0.26191919	      0.93892016	     -0.24233428	    -21.40241604	      6.22181222	    -24.40520604	      3.61475480	     -3.65561796	      0.06308937	     19.79257685	     22.23879527	     -7.53356067	     11.86861896	      6.34032783	    -16.33790407	     29.04680167	     -8.05098879	      0.50696233	     14.83704778	     13.01723087	     -7.53356067	    -45.11508088	     -2.15275590	     -0.58465053	      6.73050835	    -11.33918176	      7.34593949	     41.12768280	     90.00000001	      0.00000000	      0.00000000	     -4.57239694	    -10.08149336	     11.69169161	     48.52967390	     90.00000001	      0.00000000	      0.00000000
      1.84000000	     14.35146078	      3.94852936	      4.15691564	      0.26756975	      0.93756152	     -0.24269850	    -22.00562488	      6.59579760	    -24.50136858	      3.01288296	     -3.50930257	      0.05258473	     19.86895385	     22.35478085	     -7.53147040	     12.48140321	      6.25080332	    -18.36705233	     27.13407567	     -8.63092753	      0.47357896	     15.14482539	     16.45631959	     -7.53147040	    -45.02573510	     -1.93198903	     -0.55575834	      6.70471733	    -11.39516316	      7.49939781	     41.21228695	     90.00000001	      0.00000000	      0.00000000	     -4.67951359	    -10.05849306	     11.72887129	     48.57138619	     90.00000001	      0.00000000	      0.00000000
      1.85000000	     14.26624440	      3.80817129	      4.45623355	      0.27325831	      0.93623661	     -0.24341570	    -22.60269924	      6.83896193	    -24.77087378	      2.56691267	     -3.27602526	      0.04480108	     20.01849776	     22.58303898	     -7.53036263	     12.90375330	      6.36167305	    -19.93850068	     25.09904466	     -9.01237379	      0.43806097	     15.17102155	     18.93646709	     -7.53036263	    -44.96254712	     -1.71276380	     -0.66098673	      6.67846576	    -11.40081810	      7.57778151	     41.23220613	     90.00000001	      0.00000000	      0.00000000	     -4.79075969	    -10.04604513	     11.77684547	     48.60895289	     90.00000001	      0.00000000	      0.00000000
      1.86000000	     14.15651579	      3.61718684	      4.71877046	      0.27880198	      0.93476158	     -0.24404604	    -23.08976172	      7.10642890	    -25.11752659	      2.22291506	     -3.04807159	      0.03879719	     20.29787324	     22.93397349	     -7.52961378	     13.38726472	      6.31358054	    -21.77142914	     23.27799649	     -9.27141625	      0.40627768	     15.27500562	     21.97339167	     -7.52961378	    -44.90519482	     -1.47424718	     -0.73745615	      6.75557674	    -11.41654895	      7.65558131	     41.19856506	     90.00000001	      0.00000000	      0.00000000	     -4.86628172	    -10.04288136	     11.86662863	     48.58299602	     90.00000001	      0.00000000	      0.00000000
      1.87000000	     13.98524203	      3.30381005	      4.99191238	      0.28457621	      0.93280114	     -0.24453870	    -23.41487352	      7.59479557	    -25.36769111	      2.00831279	     -3.04724115	      0.03505167	     20.57825503	     23.12630840	     -7.52823075	     14.22601563	      5.94484442	    -24.58302153	     22.14760888	     -9.73320243	      0.38654870	     15.78072080	     26.11276743	     -7.52823075	    -44.71474846	     -1.15785559	     -0.73714761	      6.71929680	    -11.41798328	      7.73286103	     41.24095394	     90.00000001	      0.00000000	      0.00000000	     -5.01324984	    -10.05595215	     11.96921184	     48.63116711	     90.00000001	      0.00000000	      0.00000000
      1.88000000	     13.81267350	      3.02128402	      5.29706844	      0.29025571	      0.93089614	     -0.24516401	    -23.71749302	      8.00303945	    -25.54898245	      1.87057710	     -2.93753738	      0.03264773	     20.97817632	     23.13089087	     -7.52730287	     14.88410796	      5.66244286	    -26.83450154	     20.96692327	     -9.91713232	      0.36594185	     15.98232908	     29.59904983	     -7.52730287	    -44.54897587	     -0.85373206	     -0.79672138	      6.75512007	    -11.39397489	      7.77909922	     41.12735497	     90.00000001	      0.00000000	      0.00000000	     -5.10613140	    -10.07270791	     12.12379155	     48.58551366	     90.00000001	      0.00000000	      0.00000000
      1.89000000	     13.60950730	      2.67213805	      5.60992280	      0.29600307	      0.92874421	     -0.24574584	    -23.91747709	      8.55129256	    -25.64996065	      1.79309552	     -3.00610039	      0.03129542	     21.35846792	     23.13737436	     -7.52638940	     15.68582118	      5.20084230	    -29.33125931	     20.27558615	    -10.09809589	      0.35387574	     16.28236323	     33.15140829	     -7.52638940	    -44.32686211	     -0.49850291	     -0.82850720	      6.76602474	    -11.35881636	      7.80692630	     41.04195548	     90.00000001	      0.00000000	      0.00000000	     -5.21525644	    -10.10042345	     12.30399956	     48.57751046	     90.00000001	      0.00000000	      0.00000000
      1.90000000	     13.39621929	      2.35527032	      5.95221705	      0.30183111	      0.92650306	     -0.24645622	    -24.09979561	      9.11600219	    -25.64560523	      1.70838907	     -3.16506110	      0.02981701	     21.78347576	     22.97022547	     -7.52579144	     16.39645737	      4.90000303	    -31.15675325	     19.70609874	    -10.21474200	      0.34393631	     16.49835541	     35.55459970	     -7.52579144	    -44.08826571	     -0.15921899	     -0.90200781	      6.76451735	    -11.31177195	      7.82377713	     40.87664418	     90.00000001	      0.00000000	      0.00000000	     -5.33068202	    -10.12172211	     12.50139623	     48.54129676	     90.00000001	      0.00000000	      0.00000000
